<?xml version="1.0" standalone="no"?>
<svg viewBox="0 0 200 200" xmlns="http://www.w3.org/2000/svg">
  <path fill="#F2F4F8" d="M42.6,-65.7C56.7,-57.2,70.7,-47.9,79.8,-34.5C89,-21.1,93.3,-3.5,90.6,12.8C88,29.2,78.4,44.4,65.8,54.5C53.2,64.5,37.5,69.5,22.2,72.6C6.9,75.7,-8.1,77,-22.4,73.9C-36.8,70.8,-50.6,63.3,-60.5,52.2C-70.3,41.1,-76.3,26.5,-79.8,10.7C-83.2,-5.1,-84.1,-21.9,-77.5,-34.9C-70.8,-47.9,-56.7,-57,-42.5,-65.5C-28.3,-74,-14.2,-81.9,0,-81.9C14.2,-82,28.5,-74.2,42.6,-65.7Z" transform="translate(100 100)" />
</svg>
