<?xml version="1.0" standalone="no"?>
<svg viewBox="0 0 200 200" xmlns="http://www.w3.org/2000/svg">
  <path fill="#F2F4F8" d="M42.6,-66.1C57.3,-56.7,73,-48.6,80.8,-35.7C88.6,-22.8,88.4,-5,84.7,11.3C81,27.7,73.8,42.7,63.3,54.8C52.8,67,38.9,76.2,24.2,78.8C9.6,81.5,-6,77.4,-20.8,72.3C-35.6,67.3,-49.6,61.2,-61.4,51.2C-73.1,41.2,-82.7,27.2,-85.7,11.8C-88.8,-3.6,-85.3,-20.5,-78.1,-35.5C-70.9,-50.5,-60.1,-63.6,-46.5,-73.5C-32.8,-83.4,-16.4,-90.1,-1.3,-88.1C13.9,-86.1,27.8,-75.5,42.6,-66.1Z" transform="translate(100 100)" />
</svg>
