<?xml version="1.0" standalone="no"?>
<svg viewBox="0 0 200 200" xmlns="http://www.w3.org/2000/svg">
  <path fill="#F2F4F8" d="M45.1,-67C59.8,-60.7,74.1,-50.5,81.5,-36.5C89,-22.6,89.7,-4.8,85.2,10.8C80.7,26.3,70.9,39.6,59.8,51.1C48.7,62.6,36.4,72.2,22.3,76.7C8.2,81.2,-7.7,80.7,-21.5,75.5C-35.3,70.4,-47.1,60.7,-55.9,49.2C-64.7,37.7,-70.6,24.3,-75.3,9.2C-80,-5.9,-83.6,-22.9,-78.7,-36.9C-73.8,-50.9,-60.4,-62,-45.8,-68.4C-31.3,-74.7,-15.7,-76.4,-0.2,-76C15.2,-75.7,30.4,-73.3,45.1,-67Z" transform="translate(100 100)" />
</svg>
